<svg xmlns="http://www.w3.org/2000/svg" width="128" height="128" viewBox="0 0 128 128">
<rect x="0" y="0" width="128" height="128" fill="#0b0f14"/>
<path d="M 64 10 L 94 18 L 108 40 L 100 86 L 64 118 L 28 86 L 20 40 L 34 18 Z" fill="#101824" stroke="#d7dee8" stroke-width="3" />
<path d="M 64 10 L 94 18 L 108 40 L 100 86 L 64 118 L 28 86 L 20 40 L 34 18 Z" fill="none" stroke="#3a516b" stroke-width="2" opacity="0.9"/>
<path d="M64 22 L88 30 L98 46 L92 78 L64 104 L36 78 L30 46 L40 30 Z" fill="#162335" opacity="0.9"/>
<path d="M 46.00 76.40 L 64.00 98.00 L 82.00 76.40 L 53.00 76.40 L 64.00 89.60 L 75.00 76.40 Z" fill="#d7dee8" opacity="0.90"/>
<path d="M 48.00 86.80 L 64.00 106.00 L 80.00 86.80 L 55.00 86.80 L 64.00 97.60 L 73.00 86.80 Z" fill="#d7dee8" opacity="0.82"/>
<path d="M 48.00 39.80 L 49.59 43.82 L 53.90 44.08 L 50.57 46.83 L 51.64 51.02 L 48.00 48.70 L 44.36 51.02 L 45.43 46.83 L 42.10 44.08 L 46.41 43.82 Z" fill="#e8eef7" opacity="0.95"/>
<path d="M 64.00 39.80 L 65.59 43.82 L 69.90 44.08 L 66.57 46.83 L 67.64 51.02 L 64.00 48.70 L 60.36 51.02 L 61.43 46.83 L 58.10 44.08 L 62.41 43.82 Z" fill="#e8eef7" opacity="0.95"/>
<path d="M 80.00 39.80 L 81.59 43.82 L 85.90 44.08 L 82.57 46.83 L 83.64 51.02 L 80.00 48.70 L 76.36 51.02 L 77.43 46.83 L 74.10 44.08 L 78.41 43.82 Z" fill="#e8eef7" opacity="0.95"/>
<text x="64" y="122" text-anchor="middle" font-family="system-ui,Segoe UI,Arial" font-size="12" fill="#e8eef7" opacity="0.9">SR013</text>
</svg>