<svg xmlns="http://www.w3.org/2000/svg" width="128" height="128" viewBox="0 0 128 128">
<defs>
  <filter id="goldGlow" x="-20%" y="-20%" width="140%" height="140%">
    <feGaussianBlur stdDeviation="1.6" result="blur"/>
    <feMerge>
      <feMergeNode in="blur"/>
      <feMergeNode in="SourceGraphic"/>
    </feMerge>
  </filter>
</defs>
<path d="M 64 10 L 94 18 L 108 40 L 100 86 L 64 118 L 28 86 L 20 40 L 34 18 Z" fill="#101824" stroke="#d4af37" stroke-width="3" />
<path d="M 64 10 L 94 18 L 108 40 L 100 86 L 64 118 L 28 86 L 20 40 L 34 18 Z" fill="none" stroke="#8a6a1f" stroke-width="2" opacity="0.9"/>
<path d="M64 22 L88 30 L98 46 L92 78 L64 104 L36 78 L30 46 L40 30 Z" fill="#162335" opacity="0.9"/>
<path d="M16 56 L34 48 L30 64 L34 80 L16 72 Z" fill="#1b2b3f" stroke="#d4af37" stroke-width="2" opacity="0.95"/>
<path d="M112 56 L94 48 L98 64 L94 80 L112 72 Z" fill="#1b2b3f" stroke="#d4af37" stroke-width="2" opacity="0.95"/>
<path d="M44 18 L56 14 L64 20 L72 14 L84 18 L84 28 L44 28 Z" fill="#8a6a1f" stroke="#d4af37" stroke-width="2"/>
<path d="M 64.00 47.50 L 67.06 55.79 L 75.89 56.14 L 68.95 61.61 L 71.35 70.11 L 64.00 65.20 L 56.65 70.11 L 59.05 61.61 L 52.11 56.14 L 60.94 55.79 Z" fill="#f7e6a1" stroke="#d4af37" stroke-width="1.8" filter="url(#goldGlow)"/>
<path d="M 46.00 76.40 L 64.00 98.00 L 82.00 76.40 L 53.00 76.40 L 64.00 89.60 L 75.00 76.40 Z" fill="#d4af37" opacity="0.90" filter="url(#goldGlow)"/>
<path d="M 48.00 86.80 L 64.00 106.00 L 80.00 86.80 L 55.00 86.80 L 64.00 97.60 L 73.00 86.80 Z" fill="#d4af37" opacity="0.82" filter="url(#goldGlow)"/>
<path d="M 50.00 97.20 L 64.00 114.00 L 78.00 97.20 L 57.00 97.20 L 64.00 105.60 L 71.00 97.20 Z" fill="#d4af37" opacity="0.74" filter="url(#goldGlow)"/>
<path d="M 52.00 107.60 L 64.00 122.00 L 76.00 107.60 L 59.00 107.60 L 64.00 113.60 L 69.00 107.60 Z" fill="#d4af37" opacity="0.66" filter="url(#goldGlow)"/>
<text x="64" y="122" text-anchor="middle" font-family="system-ui,Segoe UI,Arial" font-size="12" fill="#f7e6a1" opacity="0.95">SR100</text>
</svg>